<svg width="20" height="20" viewBox="0 0 20 20" fill="none" xmlns="http://www.w3.org/2000/svg">
<path d="M3.76083 6.20077C5.28428 2.72713 9.06431 0.769526 12.7325 1.74824C16.796 2.83243 19.1834 7.10934 18.0651 11.301C16.9467 15.4926 12.7459 18.0117 8.68246 16.9275C6.70434 16.3998 5.06724 15.0972 4.07298 13.3165C3.92684 13.0547 3.59992 12.9675 3.34279 13.1216C3.08565 13.2758 2.99568 13.6131 3.14225 13.8756C4.27511 15.9046 6.14347 17.3912 8.39825 17.9928C13.032 19.2291 17.8223 16.3565 19.0977 11.5765C20.3731 6.79656 17.6505 1.91938 13.0167 0.68303C8.77709 -0.448153 4.40646 1.86033 2.71676 5.9222L1.00018 5.46419L2.17398 9.77104L5.33728 6.62138L3.76083 6.20077Z" fill="white"/>
<rect x="9.77771" y="3.55029" width="0.887527" height="5.76893" rx="0.443764" fill="white"/>
<rect x="9.77771" y="9.03784" width="0.887528" height="5.54705" rx="0.443764" transform="rotate(-43.0915 9.77771 9.03784)" fill="white"/>
</svg>
